HIERARCHY
ROOT hip
{
	OFFSET 0.000000 0.000000 0.000000
	CHANNELS 6 Xposition Yposition Zposition Xrotation Zrotation Yrotation 
	JOINT abdomen
	{
		OFFSET 0.000000 3.422050 0.000000
		CHANNELS 3 Xrotation Zrotation Yrotation 
		JOINT chest
		{
			OFFSET 0.000000 8.486693 -0.684411
			CHANNELS 3 Xrotation Zrotation Yrotation 
			JOINT neck
			{
				OFFSET 0.000000 10.266162 -0.273764
				CHANNELS 3 Xrotation Zrotation Yrotation 
				JOINT head
				{
					OFFSET 0.000000 3.148285 0.000000
					CHANNELS 3 Xrotation Zrotation Yrotation 
					End Site
					{
						OFFSET 0.000000 3.148289 0.000000
					}
				}
			}
			JOINT lCollar
			{
				OFFSET 3.422053 6.707223 -0.821293
				CHANNELS 3 Yrotation Zrotation Xrotation 
				JOINT lShldr
				{
					OFFSET 3.285171 0.000000 0.000000
					CHANNELS 3 Zrotation Yrotation Xrotation 
					JOINT lForeArm
					{
						OFFSET 10.129278 0.000000 0.000000
						CHANNELS 3 Yrotation Zrotation Xrotation 
						JOINT lHand
						{
							OFFSET 8.486692 0.000000 0.000000
							CHANNELS 3 Zrotation Yrotation Xrotation 
							End Site
							{
								OFFSET 4.106464 0.000000 0.000000
							}
						}
					}
				}
			}
			JOINT rCollar
			{
				OFFSET -3.558935 6.707223 -0.821293
				CHANNELS 3 Yrotation Zrotation Xrotation 
				JOINT rShldr
				{
					OFFSET -3.148289 0.000000 0.000000
					CHANNELS 3 Zrotation Yrotation Xrotation 
					JOINT rForeArm
					{
						OFFSET -10.266159 0.000000 0.000000
						CHANNELS 3 Yrotation Zrotation Xrotation 
						JOINT rHand
						{
							OFFSET -8.349810 0.000000 0.000000
							CHANNELS 3 Zrotation Yrotation Xrotation 
							End Site
							{
								OFFSET -4.106464 0.000000 0.000000
							}
						}
					}
				}
			}
		}
	}
	JOINT lThigh
	{
		OFFSET 5.338403 -1.642589 1.368821
		CHANNELS 3 Xrotation Zrotation Yrotation 
		JOINT lShin
		{
			OFFSET -2.053232 -20.121670 0.000000
			CHANNELS 3 Xrotation Zrotation Yrotation 
			JOINT lFoot
			{
				OFFSET 0.000000 -19.300380 -1.231939
				CHANNELS 3 Xrotation Yrotation Zrotation 
				End Site
				{
					OFFSET 0.000000 -2.463878 4.653993
				}
			}
		}
	}
	JOINT rThigh
	{
		OFFSET -5.338403 -1.642589 1.368821
		CHANNELS 3 Xrotation Zrotation Yrotation 
		JOINT rShin
		{
			OFFSET 2.053232 -20.121670 0.000000
			CHANNELS 3 Xrotation Zrotation Yrotation 
			JOINT rFoot
			{
				OFFSET 0.000000 -19.300380 -1.231939
				CHANNELS 3 Xrotation Yrotation Zrotation 
				End Site
				{
					OFFSET 0.000000 -2.463878 4.653993
				}
			}
		}
	}
}
MOTION
Frames: 10
Frame Time: 0.033264
0.000000 43.528500 0.000000 0.000000 0.000000 0.000000 0.000000 0.000000 0.000000 0.000000 0.000000 0.000000 0.000000 0.000000 0.000000 0.000000 0.000000 0.000000 0.000000 0.000000 0.000000 0.000000 0.000000 0.000000 0.000000 0.000000 0.000000 0.000000 0.000000 0.000000 0.000000 0.000000 0.000000 0.000000 0.000000 0.000000 0.000000 0.000000 0.000000 0.000000 0.000000 0.000000 0.000000 0.000000 0.000000 0.000000 0.000000 0.000000 0.000000 0.000000 0.000000 0.000000 0.000000 0.000000 0.000000 0.000000 0.000000 0.000000 0.000000 0.000000 
0.000000 11.998247 -8.004953 3.999748 0.000000 0.000000 62.998066 0.000000 0.000000 15.996989 0.000000 0.000000 -27.000286 0.000000 0.000000 -12.001280 0.000000 0.000000 5.996593 -0.003181 -10.001706 92.024490 -79.994408 -167.028610 -11.002115 0.000125 -20.002445 0.000000 0.000000 14.998176 -6.000379 0.000014 -10.001887 -91.985558 79.997047 -166.986374 16.999372 -0.001742 20.000179 0.000000 0.000000 -29.000626 -61.999828 19.999102 -29.999998 139.991013 0.000000 0.000000 66.999611 0.000001 -0.000001 -62.001255 -20.003736 29.999212 139.991013 0.000000 0.000000 66.999611 0.000001 -0.000001 
0.000000 11.998247 -8.004953 3.999748 0.000000 0.000000 63.230362 0.000000 -0.000000 15.996991 0.000000 0.000000 -27.000286 0.000000 0.000000 -12.298269 0.053666 -0.482961 5.996593 -0.003181 -10.001706 92.025238 -79.531029 -167.029648 -11.140914 0.014332 -19.724220 0.000000 0.000000 14.998176 -6.000379 0.000014 -10.001887 -91.986145 79.533936 -166.987198 16.999372 -0.001742 20.000179 -0.132270 0.030173 -28.152275 -61.999828 19.999102 -29.999998 139.991013 0.000000 0.000000 66.999611 0.000001 -0.000001 -62.001255 -20.003736 29.999212 139.991013 0.000000 0.000000 66.999611 0.000001 -0.000001 
0.000000 11.998247 -8.004953 3.999748 0.000000 0.000000 63.462688 0.000000 -0.000000 15.996989 0.000000 0.000000 -27.000286 0.000000 0.000000 -12.596004 0.104878 -0.966690 5.996593 -0.003181 -10.001706 92.025749 -79.067162 -167.030563 -11.279823 0.027870 -19.445883 0.000000 0.000000 14.998177 -6.000380 0.000014 -10.001887 -91.986595 79.070412 -166.987961 16.999372 -0.001742 20.000179 -0.264390 0.062380 -27.301987 -61.999828 19.999102 -30.000002 139.991013 0.000000 0.000000 66.999611 0.000001 -0.000001 -62.001255 -20.003736 29.999212 139.991013 0.000000 0.000000 66.999611 0.000001 -0.000001 
0.000000 11.998247 -8.004953 3.999748 0.000000 0.000000 63.695053 0.000000 -0.000000 15.996991 0.000000 0.000000 -27.000286 0.000000 0.000000 -12.894450 0.153620 -1.451152 5.996593 -0.003181 -10.001706 92.026276 -78.603096 -167.031448 -11.418840 0.040736 -19.167433 0.000000 0.000000 14.998176 -6.000380 0.000014 -10.001888 -91.987099 78.606705 -166.988693 16.999372 -0.001742 20.000179 -0.396314 0.096623 -26.449850 -61.999828 19.999105 -30.000002 139.991028 0.000000 0.000000 66.999611 0.000001 -0.000001 -62.001255 -20.003736 29.999212 139.991028 0.000000 0.000000 66.999611 0.000001 -0.000001 
0.000000 11.998247 -8.004953 3.999747 0.000000 0.000000 63.927464 0.000000 -0.000000 15.996988 0.000000 0.000000 -27.000288 0.000000 0.000000 -13.193580 0.199877 -1.936311 5.996593 -0.003181 -10.001706 92.026825 -78.138809 -167.032288 -11.557950 0.052930 -18.888874 0.000000 0.000000 14.998176 -6.000379 0.000014 -10.001887 -91.987480 78.142632 -166.989365 16.999371 -0.001742 20.000177 -0.527997 0.132904 -25.595963 -61.999828 19.999102 -29.999998 139.991013 0.000000 0.000000 66.999611 0.000001 -0.000001 -62.001255 -20.003736 29.999212 139.991013 0.000000 0.000000 66.999611 0.000001 -0.000001 
0.000000 11.998247 -8.004953 3.999748 0.000000 0.000000 64.159904 0.000000 -0.000000 15.996989 0.000000 0.000000 -27.000286 0.000000 0.000000 -13.493354 0.243637 -2.422133 5.996593 -0.003181 -10.001706 92.027275 -77.674194 -167.033081 -11.697158 0.064450 -18.610216 0.000000 0.000000 14.998177 -6.000379 0.000014 -10.001886 -91.987907 77.678375 -166.990021 16.999372 -0.001742 20.000179 -0.659392 0.171223 -24.740427 -61.999828 19.999102 -29.999998 139.991013 0.000000 0.000000 66.999611 0.000001 -0.000001 -62.001255 -20.003736 29.999212 139.991013 0.000000 0.000000 66.999611 0.000001 -0.000001 
0.000000 11.998247 -8.004953 3.999748 0.000000 0.000000 64.392380 0.000000 -0.000000 15.996989 0.000000 0.000000 -27.000288 0.000000 0.000000 -13.793737 0.284886 -2.908581 5.996593 -0.003181 -10.001706 92.027672 -77.209312 -167.033829 -11.836453 0.075295 -18.331461 0.000000 0.000000 14.998177 -6.000379 0.000014 -10.001887 -91.988182 77.213760 -166.990601 16.999372 -0.001742 20.000179 -0.790450 0.211579 -23.883322 -61.999828 19.999102 -29.999998 139.991013 0.000000 0.000000 66.999611 0.000001 -0.000001 -62.001255 -20.003733 29.999208 139.991013 0.000000 0.000000 66.999611 0.000001 -0.000001 
0.000000 11.998247 -8.004953 3.999748 0.000000 0.000000 64.624870 0.000000 -0.000000 15.996989 0.000000 0.000000 -27.000288 0.000000 0.000000 -14.094692 0.323611 -3.395618 5.996593 -0.003181 -10.001706 92.028015 -76.744225 -167.034515 -11.975832 0.085465 -18.052618 0.000000 0.000000 14.998176 -6.000379 0.000014 -10.001887 -91.988449 76.748955 -166.991150 16.999372 -0.001742 20.000179 -0.921127 0.253969 -23.024769 -61.999828 19.999102 -29.999998 139.991028 0.000000 0.000000 66.999611 0.000001 -0.000001 -62.001255 -20.003736 29.999212 139.991028 0.000000 0.000000 66.999611 0.000001 -0.000001 
0.000000 11.998247 -8.004953 3.999748 0.000000 0.000000 64.857391 0.000000 -0.000000 15.996989 0.000000 0.000000 -27.000288 0.000000 0.000000 -14.396190 0.359802 -3.883209 5.996593 -0.003181 -10.001706 92.028336 -76.278900 -167.035172 -12.115293 0.094958 -17.773693 0.000000 0.000000 14.998177 -6.000379 0.000014 -10.001887 -91.988762 76.283989 -166.991699 16.999372 -0.001742 20.000181 -1.051374 0.298389 -22.164860 -61.999828 19.999102 -29.999998 139.991028 0.000000 0.000000 66.999611 0.000001 -0.000001 -62.001255 -20.003736 29.999212 139.991028 0.000000 0.000000 66.999611 0.000001 -0.000001 
